<?xml version="1.0" encoding="UTF-8"?>
<svg version="1.1" xmlns="http://www.w3.org/2000/svg" width="512" height="512">
<path d="M0 0 C0.80221481 -0.0065712 1.60442963 -0.0131424 2.43095398 -0.01991272 C5.08344628 -0.0396056 7.73588194 -0.0513021 10.38842773 -0.0612793 C11.29776503 -0.06535482 12.20710232 -0.06943035 13.14399529 -0.07362938 C17.9612289 -0.09447743 22.77843418 -0.10878215 27.59570312 -0.11816406 C32.54954114 -0.12919936 37.50292639 -0.16356952 42.45660496 -0.20333576 C46.28385703 -0.22960066 50.11100307 -0.23786484 53.93833733 -0.24144554 C55.76302063 -0.24628947 57.5876999 -0.25784017 59.41229439 -0.27648354 C74.3872311 -0.41993046 85.59755051 1.24564226 96.84545898 11.91918945 C101.56349909 16.88446311 108.00952148 25.07497683 108.00952148 32.17700195 C108.57169373 32.16811951 109.13386597 32.15923706 109.71307373 32.15008545 C115.61891402 32.06088056 121.52455978 32.00096786 127.4309082 31.95727539 C129.62857857 31.93728778 131.82619662 31.91008833 134.02368164 31.87524414 C151.93138732 31.59861443 166.94737476 32.58200774 180.75952148 45.42700195 C194.00968228 59.64364507 195.16180715 76.42459351 195.15478516 94.86352539 C195.15778177 96.43979979 195.16118545 98.01607347 195.16496277 99.59234619 C195.17375617 103.85288477 195.17613892 108.11340323 195.17677855 112.37395 C195.17749175 115.04202925 195.17963115 117.71010347 195.18227577 120.37818146 C195.19151402 129.70402854 195.1956126 139.02986138 195.19482422 148.35571289 C195.19422395 157.01993996 195.20476974 165.68410466 195.22056788 174.34831595 C195.23368566 181.81106219 195.23900634 189.27378814 195.23836881 196.7365458 C195.23811505 201.18300591 195.24089822 205.62941055 195.25154686 210.07585907 C195.26129939 214.26201016 195.26125851 218.44805357 195.25403023 222.63420868 C195.25299319 224.16068684 195.25529413 225.68717197 195.26139069 227.21363831 C195.33195449 246.12327089 193.37213326 261.26811077 179.97827148 275.3059082 C164.60949611 289.97863397 146.63516658 289.47622492 126.70849609 289.43579102 C124.45859158 289.43850457 122.20868796 289.44206755 119.95878601 289.44641113 C113.87628505 289.45549347 107.79385228 289.45200819 101.7113502 289.44565296 C95.33169932 289.44057204 88.95205408 289.44529016 82.57240295 289.44842529 C71.17719866 289.45229097 59.78203197 289.44609558 48.38683403 289.43590662 C38.07346652 289.42697022 27.76014404 289.42852662 17.44677734 289.43774414 C5.44251928 289.44846801 -6.56170481 289.45242028 -18.56596941 289.44651961 C-24.91038019 289.44340844 -31.25476001 289.44296718 -37.59916878 289.44959259 C-43.56397132 289.4553871 -49.52868915 289.45133064 -55.49348259 289.43980408 C-57.67711115 289.43716887 -59.86074689 289.43790303 -62.04437256 289.44232941 C-81.88806916 289.47883324 -98.23641812 288.56271403 -113.15454102 274.07543945 C-121.58648474 265.13821071 -126.22613492 254.96081317 -126.25790405 242.57574463 C-126.26243517 241.84248545 -126.26696628 241.10922628 -126.2716347 240.35374713 C-126.28422526 237.91358185 -126.28266181 235.47364129 -126.28100586 233.03344727 C-126.2869945 231.27688309 -126.29380082 229.52032154 -126.30136108 227.76376343 C-126.31899526 223.00324646 -126.32371541 218.24280145 -126.32499266 213.48225498 C-126.32641641 210.50430368 -126.33069028 207.52637055 -126.33598709 204.54842377 C-126.35447965 194.14856306 -126.36265877 183.74875355 -126.36108398 173.34887695 C-126.35988318 163.67234228 -126.38097563 153.99603086 -126.41257131 144.31955266 C-126.43877118 135.99742948 -126.44944971 127.67537905 -126.44817317 119.35321498 C-126.44766457 114.38917736 -126.45329065 109.4253382 -126.47452927 104.46134186 C-126.49397395 99.78923464 -126.49399371 95.11751391 -126.479496 90.44539261 C-126.47741444 88.73746548 -126.48206965 87.02951377 -126.49421692 85.32162857 C-126.59549378 70.08704063 -123.44532997 57.04753918 -112.86547852 45.48950195 C-102.30584737 35.62918413 -89.88468816 31.6596215 -75.73266602 31.8840332 C-74.70360138 31.88827805 -73.67453674 31.89252289 -72.61428833 31.89689636 C-69.36440585 31.91353557 -66.11516992 31.95115965 -62.86547852 31.98950195 C-60.64673754 32.00456788 -58.42798674 32.01825292 -56.20922852 32.03051758 C-50.80276219 32.06339045 -45.39666656 32.11343987 -39.99047852 32.17700195 C-39.68577637 31.24291504 -39.38107422 30.30882813 -39.06713867 29.34643555 C-35.13587611 17.77372566 -28.62531252 9.32757975 -17.74047852 3.73950195 C-11.59007362 0.81566958 -6.79371371 0.02423409 0 0 Z M-14.47094727 118.96606445 C-26.9908489 134.86235497 -30.79049577 151.34361516 -28.99047852 171.17700195 C-26.30298817 187.49536187 -16.53607797 201.98276596 -3.38330078 211.82275391 C11.31381624 222.26078663 28.26339454 226.13680998 46.00952148 223.17700195 C63.4127721 219.29088012 78.23567152 209.14919859 88.00952148 194.17700195 C97.08314007 178.57637 99.78925537 162.87024272 96.00952148 145.17700195 C91.32809365 128.28802305 81.26116724 114.05829567 66.00952148 105.17700195 C62.41989479 103.26740403 58.79957441 101.64672418 55.00952148 100.17700195 C54.20514648 99.85602539 53.40077148 99.53504883 52.57202148 99.2043457 C28.57648916 91.14334656 1.91196101 100.54496759 -14.47094727 118.96606445 Z " fill="#000000" transform="translate(221.990478515625,95.822998046875)"/>
<path d="M0 0 C5.41130895 3.73637999 7.10243413 7.52706922 8.625 13.8125 C8.88569641 17.09933472 8.88569641 17.09933472 8.8996582 20.52294922 C8.90919022 21.81474091 8.91872223 23.10653259 8.92854309 24.43746948 C8.9282816 25.8307091 8.92734425 27.22394873 8.92578125 28.6171875 C8.92967494 30.06535971 8.93401098 31.5135308 8.93876648 32.96170044 C8.94620359 35.9893159 8.94595593 39.0168147 8.94067383 42.04443359 C8.93488546 45.90314535 8.95180673 49.76137613 8.9750185 53.62000847 C8.98983024 56.60908753 8.99061745 59.59805276 8.98750877 62.58716202 C8.98801835 64.0087695 8.99318705 65.43038396 9.00332069 66.85195541 C9.11445413 84.62174178 9.11445413 84.62174178 4.31465149 90.38619995 C-0.84542616 95.07102316 -6.4167004 96.06057136 -13.17138672 96.0871582 C-13.82265533 96.09226913 -14.47392395 96.09738007 -15.14492798 96.10264587 C-17.28160998 96.11645914 -19.41796636 96.11559126 -21.5546875 96.11328125 C-23.05152504 96.11717306 -24.54836149 96.12150873 -26.04519653 96.12626648 C-29.17714015 96.13371116 -32.308971 96.13345042 -35.44091797 96.12817383 C-39.43763392 96.12238502 -43.43388557 96.13930412 -47.43052483 96.1625185 C-50.52078919 96.17731239 -53.61094322 96.17811983 -56.70123672 96.17500877 C-58.17390995 96.17551927 -59.64658979 96.18070548 -61.11922836 96.19082069 C-78.67722814 96.29662201 -78.67722814 96.29662201 -83.91598511 91.36054993 C-88.44657266 86.13558778 -88.72898316 82.53049231 -88.6484375 75.796875 C-88.27627272 71.73496227 -87.21750919 69.72789404 -84.375 66.8125 C-78.10615465 62.18022805 -72.72668623 62.28164617 -65.09765625 62.421875 C-63.9311705 62.42753479 -62.76468475 62.43319458 -61.56285095 62.43902588 C-57.85397513 62.46133416 -54.14608159 62.51152293 -50.4375 62.5625 C-47.91602962 62.58257205 -45.39454403 62.60082158 -42.87304688 62.6171875 C-36.7066987 62.6611809 -30.54091955 62.72803863 -24.375 62.8125 C-24.38388245 62.14930756 -24.39276489 61.48611511 -24.4019165 60.80282593 C-24.49049956 53.89223866 -24.55078015 46.98181304 -24.59472656 40.07080078 C-24.61482563 37.49260912 -24.64210941 34.91446296 -24.67675781 32.33642578 C-24.72534847 28.62781539 -24.74798658 24.91980844 -24.765625 21.2109375 C-24.78627014 20.06072113 -24.80691528 18.91050476 -24.82818604 17.72543335 C-24.82994239 11.44311234 -24.69283737 7.53337438 -20.375 2.8125 C-13.98496692 -2.04392514 -7.58085556 -2.66733807 0 0 Z " fill="#000000" transform="translate(472.375,385.1875)"/>
<path d="M0 0 C0.71314865 -0.00540298 1.4262973 -0.01080597 2.16105652 -0.01637268 C4.49704662 -0.02878763 6.8317867 -0.01242059 9.16772461 0.00561523 C10.80244511 0.00546009 12.43716598 0.00396861 14.07188416 0.00120544 C17.48884449 -0.00017524 20.90538338 0.01232498 24.32226562 0.03515625 C28.69247913 0.06356269 33.06199418 0.06079313 37.43225956 0.04806614 C40.80470196 0.04109767 44.17698412 0.04891114 47.54940605 0.06132317 C49.16047996 0.06582475 50.77157115 0.06618581 52.38264656 0.06225777 C54.63696454 0.05933339 56.89033351 0.0759087 59.14453125 0.09765625 C60.4246962 0.10305923 61.70486115 0.10846222 63.02381897 0.11402893 C67.96223023 0.66358727 71.25483701 2.24897763 74.75756836 5.75170898 C78.04114021 10.9116076 78.75765264 16.18631034 78.78222656 22.2121582 C78.79175858 23.50394989 78.80129059 24.79574158 78.81111145 26.12667847 C78.81084996 27.51991809 78.80991261 28.91315772 78.80834961 30.30639648 C78.8122433 31.7545687 78.81657934 33.20273978 78.82133484 34.65090942 C78.82877195 37.67852488 78.82852429 40.70602368 78.82324219 43.73364258 C78.81745382 47.59235434 78.83437509 51.45058512 78.85758686 55.30921745 C78.8723986 58.29829651 78.87318581 61.28726174 78.87007713 64.276371 C78.87058671 65.69797848 78.87575541 67.11959295 78.88588905 68.5411644 C78.99702249 86.31095077 78.99702249 86.31095077 74.19721985 92.07540894 C70.51804962 95.41571953 66.56608148 97.45257624 61.56225586 97.53295898 C55.42674167 97.06637996 51.50037784 94.71337408 47.36010742 90.1184082 C44.30514947 85.3509756 45.01709725 79.77902551 45.11694336 74.32202148 C45.12260315 73.15412079 45.12826294 71.98622009 45.13409424 70.78292847 C45.1564308 67.06376644 45.20662494 63.34557837 45.25756836 59.62670898 C45.27763675 57.10068126 45.29588692 54.57463839 45.31225586 52.04858398 C45.35628683 45.8659617 45.42317305 39.68390494 45.50756836 33.50170898 C44.89892944 33.50837082 44.29029053 33.51503265 43.66320801 33.52189636 C37.3037649 33.58848952 30.94442158 33.63360888 24.5847168 33.66650391 C22.21423313 33.68154997 19.84377711 33.70199172 17.47338867 33.72802734 C14.05762896 33.76459404 10.64223874 33.78147767 7.22631836 33.79467773 C6.17391968 33.81016159 5.121521 33.82564545 4.03723145 33.84159851 C-2.4071601 33.84305813 -9.05097962 33.71458383 -14.04797363 29.04948425 C-18.55055849 23.80301439 -18.846494 20.22632221 -18.76586914 13.48608398 C-18.39370436 9.42417125 -17.33494083 7.41710302 -14.49243164 4.50170898 C-9.42759466 1.12168012 -6.21697035 0.00080648 0 0 Z " fill="#000000" transform="translate(402.492431640625,31.498291015625)"/>
<path d="M0 0 C5.20524624 3.59409859 7.49886801 7.66828578 8.625 13.8125 C8.88481864 17.61611766 8.85829591 21.40388519 8.8203125 25.21484375 C8.8174826 26.29254532 8.81465271 27.37024689 8.81173706 28.48060608 C8.80059193 31.90385299 8.77549756 35.32683291 8.75 38.75 C8.73996289 41.07877225 8.73083832 43.40754862 8.72265625 45.73632812 C8.70067116 51.42847565 8.66725013 57.12046874 8.625 62.8125 C9.26313629 62.80583817 9.90127258 62.79917633 10.55874634 62.79231262 C17.20984857 62.72586151 23.86085624 62.68065866 30.51220703 62.64770508 C32.9933658 62.63263338 35.47449799 62.61217254 37.95556641 62.58618164 C41.52513189 62.54972833 45.09434461 62.53275708 48.6640625 62.51953125 C49.77053131 62.50404739 50.87700012 62.48856354 52.01699829 62.47261047 C58.93463635 62.47110418 63.65214198 63.00480076 68.875 67.9375 C71.64690793 72.49134874 73.04173969 76.86179139 72.28515625 82.21875 C70.70417949 87.83168526 68.49884536 90.65883536 63.625 93.8125 C59.23463237 95.57175223 55.54363903 96.06859958 50.82861328 96.0871582 C50.17734467 96.09226913 49.52607605 96.09738007 48.85507202 96.10264587 C46.71839002 96.11645914 44.58203364 96.11559126 42.4453125 96.11328125 C40.94847496 96.11717306 39.45163851 96.12150873 37.95480347 96.12626648 C34.82285985 96.13371116 31.691029 96.13345042 28.55908203 96.12817383 C24.56236608 96.12238502 20.56611443 96.13930412 16.56947517 96.1625185 C13.47921081 96.17731239 10.38905678 96.17811983 7.29876328 96.17500877 C5.82609005 96.17551927 4.35341021 96.18070548 2.88077164 96.19082069 C-14.67722814 96.29662201 -14.67722814 96.29662201 -19.91598511 91.36054993 C-23.94347868 86.7157878 -24.52903533 83.63207019 -24.55200195 77.70410156 C-24.55857315 76.9721759 -24.56514435 76.24025024 -24.57191467 75.48614502 C-24.59166064 73.05847067 -24.60331414 70.63085827 -24.61328125 68.203125 C-24.61735678 67.37397331 -24.6214323 66.54482162 -24.62563133 65.69054413 C-24.6464993 61.30053455 -24.66079689 56.91055628 -24.67016602 52.52050781 C-24.68122187 47.98984066 -24.71560984 43.45966581 -24.75533772 38.92917252 C-24.78150953 35.44267883 -24.78985842 31.95630221 -24.79344749 28.46971893 C-24.79831334 26.79999218 -24.80992736 25.13027066 -24.82848549 23.46063995 C-24.8528861 21.11952493 -24.85191065 18.77968035 -24.8449707 16.43847656 C-24.85778076 15.75253418 -24.87059082 15.0665918 -24.88378906 14.35986328 C-24.83044536 9.40613253 -23.46722947 6.62694751 -20.375 2.8125 C-13.98496692 -2.04392514 -7.58085556 -2.66733807 0 0 Z " fill="#000000" transform="translate(56.375,385.1875)"/>
<path d="M0 0 C0.71314865 -0.00540298 1.4262973 -0.01080597 2.16105652 -0.01637268 C4.49704662 -0.02878763 6.8317867 -0.01242059 9.16772461 0.00561523 C10.80244511 0.00546009 12.43716598 0.00396861 14.07188416 0.00120544 C17.48884449 -0.00017524 20.90538338 0.01232498 24.32226562 0.03515625 C28.69247913 0.06356269 33.06199418 0.06079313 37.43225956 0.04806614 C40.80470196 0.04109767 44.17698412 0.04891114 47.54940605 0.06132317 C49.16047996 0.06582475 50.77157115 0.06618581 52.38264656 0.06225777 C54.63696454 0.05933339 56.89033351 0.0759087 59.14453125 0.09765625 C60.4246962 0.10305923 61.70486115 0.10846222 63.02381897 0.11402893 C67.90611331 0.65734245 71.20137301 2.26808005 74.75756836 5.62670898 C77.52947629 10.18055772 78.92430805 14.55100038 78.16772461 19.90795898 C76.58674785 25.52089424 74.38141372 28.34804434 69.50756836 31.50170898 C63.83570217 34.0426606 58.29395109 33.75742947 52.20288086 33.69702148 C51.12376434 33.69419159 50.04464783 33.69136169 48.93283081 33.68844604 C45.49929537 33.67728559 42.06602445 33.65218829 38.63256836 33.62670898 C36.2992388 33.61667385 33.96590514 33.60754894 31.63256836 33.59936523 C25.92414536 33.57735978 20.21587576 33.54392325 14.50756836 33.50170898 C14.51423019 34.08307114 14.52089203 34.66443329 14.52775574 35.26341248 C14.59443754 41.34726396 14.63950453 47.43101058 14.67236328 53.51513672 C14.68739344 55.78178122 14.70782318 58.04839692 14.73388672 60.31494141 C14.77052424 63.58430111 14.78735296 66.85327425 14.80053711 70.12280273 C14.81602097 71.12629257 14.83150482 72.12978241 14.84745789 73.16368103 C14.84899952 79.69721705 14.54223773 86.82451348 10.19694519 92.08982849 C6.50124333 95.41027921 2.56810335 97.45254376 -2.43774414 97.53295898 C-7.38374925 97.15683692 -10.6341099 95.74620681 -14.49243164 92.50170898 C-18.18692561 87.88796539 -18.99583872 84.8114045 -19.01000977 78.93920898 C-19.01701904 78.20669922 -19.02402832 77.47418945 -19.03125 76.71948242 C-19.04876561 74.31316516 -19.03723119 71.9080369 -19.02368164 69.50170898 C-19.02637843 67.82071712 -19.03026241 66.13972678 -19.03527832 64.45874023 C-19.04116462 60.94166155 -19.03263873 57.42499019 -19.01391602 53.90795898 C-18.99112665 49.40868709 -19.00425444 44.91036972 -19.02820587 40.41113281 C-19.04268755 36.94174052 -19.03804708 33.47257304 -19.0276947 30.00317383 C-19.02503395 28.34464402 -19.02827421 26.68609354 -19.03761292 25.02758789 C-19.0478181 22.70591478 -19.03222443 20.38576888 -19.01000977 18.06420898 C-19.00682739 16.74549805 -19.00364502 15.42678711 -19.00036621 14.06811523 C-18.32054803 9.29484728 -16.74746164 6.29828323 -12.93364048 3.25982571 C-8.66718901 0.53156622 -5.10417651 0.00066212 0 0 Z " fill="#000000" transform="translate(50.492431640625,31.498291015625)"/>
<path d="M0 0 C0.64324219 0.4125 1.28648437 0.825 1.94921875 1.25 C2.64402344 1.6625 3.33882813 2.075 4.0546875 2.5 C10.69799447 6.88732467 14.68691323 12.74814935 16.83203125 20.3984375 C18.84008995 31.09961106 17.65177232 39.87137971 11.64453125 49.02734375 C6.38894389 55.91773363 -0.42101088 60.22025562 -8.9765625 61.78515625 C-20.04152299 63.00834756 -28.06032833 60.88179917 -37.05078125 54.25 C-43.40599925 48.68408103 -46.61025226 41.71822266 -47.43359375 33.3671875 C-47.76782714 25.63519429 -47.26662886 18.93433732 -43.05078125 12.25 C-42.70015625 11.62867188 -42.34953125 11.00734375 -41.98828125 10.3671875 C-33.71683938 -2.90158383 -13.60959491 -7.46583492 0 0 Z " fill="#000000" transform="translate(271.05078125,226.75)"/>
</svg>
